{
  "accessors": [
    {
      "bufferView": 2,
      "componentType": 5126,
      "count": 27,
      "max": [
        17.530794143676758,
        18.149211883544922,
        0.0
      ],
      "min": [
        -17.530794143676758,
        -17.530794143676758,
        0.0
      ],
      "type": "VEC3"
    },
    {
      "bufferView": 2,
      "byteOffset": 324,
      "componentType": 5126,
      "count": 27,
      "max": [
        0.0,
        -0.0,
        1.0
      ],
      "min": [
        0.0,
        -0.0,
        1.0
      ],
      "type": "VEC3"
    },
    {
      "bufferView": 1,
      "componentType": 5126,
      "count": 27,
      "max": [
        0.9751350283622742,
        0.9827319979667664
      ],
      "min": [
        0.013279999606311321,
        0.020875999704003334
      ],
      "type": "VEC2"
    },
    {
      "bufferView": 0,
      "componentType": 5125,
      "count": 111,
      "type": "SCALAR"
    },
    {
      "bufferView": 2,
      "byteOffset": 648,
      "componentType": 5126,
      "count": 136,
      "max": [
        7.71251106262207,
        14.77791690826416,
        8.825654983520508
      ],
      "min": [
        -11.934768676757813,
        -15.511208534240723,
        -1.402974009513855
      ],
      "type": "VEC3"
    },
    {
      "bufferView": 2,
      "byteOffset": 2280,
      "componentType": 5126,
      "count": 136,
      "max": [
        0.9584141373634338,
        0.9950962662696838,
        0.8769611120223999
      ],
      "min": [
        -0.972798228263855,
        -0.9144527912139893,
        -0.8375991582870483
      ],
      "type": "VEC3"
    },
    {
      "bufferView": 1,
      "byteOffset": 216,
      "componentType": 5126,
      "count": 136,
      "max": [
        0.9227780103683472,
        1.0
      ],
      "min": [
        0.0,
        0.0
      ],
      "type": "VEC2"
    },
    {
      "bufferView": 0,
      "byteOffset": 444,
      "componentType": 5125,
      "count": 720,
      "type": "SCALAR"
    },
    {
      "bufferView": 2,
      "byteOffset": 3912,
      "componentType": 5126,
      "count": 6610,
      "max": [
        7.821842193603516,
        14.347040176391602,
        28.848209381103516
      ],
      "min": [
        -7.821842193603516,
        -11.000726699829102,
        1.8922510147094727
      ],
      "type": "VEC3"
    },
    {
      "bufferView": 2,
      "byteOffset": 83232,
      "componentType": 5126,
      "count": 6610,
      "max": [
        1.0,
        0.9989831447601318,
        0.9999449849128723
      ],
      "min": [
        -1.0,
        -0.9935685396194458,
        -0.9998533725738525
      ],
      "type": "VEC3"
    },
    {
      "bufferView": 1,
      "byteOffset": 1304,
      "componentType": 5126,
      "count": 6610,
      "max": [
        1.9984469413757324,
        1.0
      ],
      "min": [
        0.0,
        0.0
      ],
      "type": "VEC2"
    },
    {
      "bufferView": 0,
      "byteOffset": 3324,
      "componentType": 5125,
      "count": 15954,
      "type": "SCALAR"
    },
    {
      "bufferView": 2,
      "byteOffset": 162552,
      "componentType": 5126,
      "count": 6746,
      "max": [
        7.903563022613525,
        14.975231170654297,
        28.90989112854004
      ],
      "min": [
        -12.09737491607666,
        -15.715126037597656,
        -1.499129056930542
      ],
      "type": "VEC3"
    },
    {
      "bufferView": 2,
      "byteOffset": 243504,
      "componentType": 5126,
      "count": 6746,
      "max": [
        0.9999993443489075,
        0.9974116683006287,
        0.9995449781417847
      ],
      "min": [
        -0.9999943375587463,
        -0.9981895089149475,
        -0.9997277855873108
      ],
      "type": "VEC3"
    },
    {
      "bufferView": 1,
      "byteOffset": 54184,
      "componentType": 5126,
      "count": 6746,
      "max": [
        1.9984469413757324,
        1.0
      ],
      "min": [
        0.0,
        0.0
      ],
      "type": "VEC2"
    },
    {
      "bufferView": 0,
      "byteOffset": 67140,
      "componentType": 5125,
      "count": 16674,
      "type": "SCALAR"
    }
  ],
  "asset": {
    "extras": {
      "author": "Yvette Kooke (https://sketchfab.com/YvetteKooke)",
      "license": "CC-BY-NC-4.0 (http://creativecommons.org/licenses/by-nc/4.0/)",
      "source": "https://sketchfab.com/3d-models/little-boat-1ded4c0ffe284a14b41c9a5acb08f3ad",
      "title": "Little Boat"
    },
    "generator": "Sketchfab-12.68.0",
    "version": "2.0"
  },
  "bufferViews": [
    {
      "buffer": 0,
      "byteLength": 133836,
      "name": "floatBufferViews",
      "target": 34963
    },
    {
      "buffer": 0,
      "byteLength": 108152,
      "byteOffset": 133836,
      "byteStride": 8,
      "name": "floatBufferViews",
      "target": 34962
    },
    {
      "buffer": 0,
      "byteLength": 324456,
      "byteOffset": 241988,
      "byteStride": 12,
      "name": "floatBufferViews",
      "target": 34962
    }
  ],
  "buffers": [
    {
      "byteLength": 566444,
      "uri": "scene.bin"
    }
  ],
  "extensionsUsed": [
    "KHR_materials_unlit"
  ],
  "images": [
    {
      "uri": "textures/blinn1SG_baseColor.png"
    },
    {
      "uri": "textures/initialShadingGroup_baseColor.png"
    },
    {
      "uri": "textures/lambert2SG_baseColor.png"
    }
  ],
  "materials": [
    {
      "alphaMode": "BLEND",
      "doubleSided": true,
      "extensions": {
        "KHR_materials_unlit": {}
      },
      "name": "blinn1SG",
      "pbrMetallicRoughness": {
        "baseColorTexture": {
          "index": 0
        },
        "metallicFactor": 0.0
      }
    },
    {
      "doubleSided": true,
      "extensions": {
        "KHR_materials_unlit": {}
      },
      "name": "initialShadingGroup",
      "pbrMetallicRoughness": {
        "baseColorTexture": {
          "index": 1
        },
        "metallicFactor": 0.0
      }
    },
    {
      "extensions": {
        "KHR_materials_unlit": {}
      },
      "name": "lambert2SG",
      "pbrMetallicRoughness": {
        "baseColorTexture": {
          "index": 2
        },
        "metallicFactor": 0.0
      }
    },
    {
      "extensions": {
        "KHR_materials_unlit": {}
      },
      "name": "lambert3SG",
      "pbrMetallicRoughness": {
        "baseColorFactor": [
          0.015876293507004053,
          0.009199956479784431,
          0.009199956479784431,
          1.0
        ],
        "metallicFactor": 0.0
      }
    }
  ],
  "meshes": [
    {
      "name": "Object_0",
      "primitives": [
        {
          "attributes": {
            "NORMAL": 1,
            "POSITION": 0,
            "TEXCOORD_0": 2
          },
          "indices": 3,
          "material": 0,
          "mode": 4
        }
      ]
    },
    {
      "name": "Object_1",
      "primitives": [
        {
          "attributes": {
            "NORMAL": 5,
            "POSITION": 4,
            "TEXCOORD_0": 6
          },
          "indices": 7,
          "material": 1,
          "mode": 4
        }
      ]
    },
    {
      "name": "Object_2",
      "primitives": [
        {
          "attributes": {
            "NORMAL": 9,
            "POSITION": 8,
            "TEXCOORD_0": 10
          },
          "indices": 11,
          "material": 2,
          "mode": 4
        }
      ]
    },
    {
      "name": "Object_3",
      "primitives": [
        {
          "attributes": {
            "NORMAL": 13,
            "POSITION": 12,
            "TEXCOORD_0": 14
          },
          "indices": 15,
          "material": 3,
          "mode": 4
        }
      ]
    }
  ],
  "nodes": [
    {
      "children": [
        1
      ],
      "matrix": [
        1.0,
        0.0,
        0.0,
        0.0,
        0.0,
        2.220446049250313e-16,
        -1.0,
        0.0,
        0.0,
        1.0,
        2.220446049250313e-16,
        0.0,
        0.0,
        0.0,
        0.0,
        1.0
      ],
      "name": "Sketchfab_model"
    },
    {
      "children": [
        2,
        3,
        4,
        5
      ],
      "name": "boatsss.obj.cleaner.materialmerger.gles"
    },
    {
      "mesh": 0,
      "name": "Object_2"
    },
    {
      "mesh": 1,
      "name": "Object_3"
    },
    {
      "mesh": 2,
      "name": "Object_4"
    },
    {
      "mesh": 3,
      "name": "Object_5"
    }
  ],
  "samplers": [
    {
      "magFilter": 9729,
      "minFilter": 9987,
      "wrapS": 10497,
      "wrapT": 10497
    }
  ],
  "scene": 0,
  "scenes": [
    {
      "name": "Sketchfab_Scene",
      "nodes": [
        0
      ]
    }
  ],
  "textures": [
    {
      "sampler": 0,
      "source": 0
    },
    {
      "sampler": 0,
      "source": 1
    },
    {
      "sampler": 0,
      "source": 2
    }
  ]
}
